<?xml version="1.0" encoding="UTF-8"?>
<svg width="512" height="512" shape-rendering="crispEdges" version="1.1" xmlns="http://www.w3.org/2000/svg">
	<desc>QR Code</desc>
	<rect width="512" height="512" fill="#FFF"/>
	<path d="M24 24h16v16H24V24M40 24h16v16H40V24M56 24h16v16H56V24M72 24h16v16H72V24M88 24h16v16H88V24M104 24h16v16H104V24M120 24h16v16H120V24M168 24h16v16H168V24M184 24h16v16H184V24M216 24h16v16H216V24M232 24h16v16H232V24M248 24h16v16H248V24M264 24h16v16H264V24M280 24h16v16H280V24M296 24h16v16H296V24M312 24h16v16H312V24M328 24h16v16H328V24M376 24h16v16H376V24M392 24h16v16H392V24M408 24h16v16H408V24M424 24h16v16H424V24M440 24h16v16H440V24M456 24h16v16H456V24M472 24h16v16H472V24M24 40h16v16H24V40M120 40h16v16H120V40M152 40h16v16H152V40M184 40h16v16H184V40M280 40h16v16H280V40M296 40h16v16H296V40M328 40h16v16H328V40M376 40h16v16H376V40M472 40h16v16H472V40M24 56h16v16H24V56M56 56h16v16H56V56M72 56h16v16H72V56M88 56h16v16H88V56M120 56h16v16H120V56M152 56h16v16H152V56M184 56h16v16H184V56M216 56h16v16H216V56M232 56h16v16H232V56M248 56h16v16H248V56M296 56h16v16H296V56M312 56h16v16H312V56M376 56h16v16H376V56M408 56h16v16H408V56M424 56h16v16H424V56M440 56h16v16H440V56M472 56h16v16H472V56M24 72h16v16H24V72M56 72h16v16H56V72M72 72h16v16H72V72M88 72h16v16H88V72M120 72h16v16H120V72M152 72h16v16H152V72M168 72h16v16H168V72M200 72h16v16H200V72M232 72h16v16H232V72M264 72h16v16H264V72M296 72h16v16H296V72M312 72h16v16H312V72M328 72h16v16H328V72M344 72h16v16H344V72M376 72h16v16H376V72M408 72h16v16H408V72M424 72h16v16H424V72M440 72h16v16H440V72M472 72h16v16H472V72M24 88h16v16H24V88M56 88h16v16H56V88M72 88h16v16H72V88M88 88h16v16H88V88M120 88h16v16H120V88M152 88h16v16H152V88M168 88h16v16H168V88M232 88h16v16H232V88M280 88h16v16H280V88M296 88h16v16H296V88M312 88h16v16H312V88M328 88h16v16H328V88M376 88h16v16H376V88M408 88h16v16H408V88M424 88h16v16H424V88M440 88h16v16H440V88M472 88h16v16H472V88M24 104h16v16H24V104M120 104h16v16H120V104M152 104h16v16H152V104M168 104h16v16H168V104M184 104h16v16H184V104M216 104h16v16H216V104M248 104h16v16H248V104M280 104h16v16H280V104M376 104h16v16H376V104M472 104h16v16H472V104M24 120h16v16H24V120M40 120h16v16H40V120M56 120h16v16H56V120M72 120h16v16H72V120M88 120h16v16H88V120M104 120h16v16H104V120M120 120h16v16H120V120M152 120h16v16H152V120M184 120h16v16H184V120M216 120h16v16H216V120M248 120h16v16H248V120M280 120h16v16H280V120M312 120h16v16H312V120M344 120h16v16H344V120M376 120h16v16H376V120M392 120h16v16H392V120M408 120h16v16H408V120M424 120h16v16H424V120M440 120h16v16H440V120M456 120h16v16H456V120M472 120h16v16H472V120M248 136h16v16H248V136M264 136h16v16H264V136M280 136h16v16H280V136M312 136h16v16H312V136M328 136h16v16H328V136M56 152h16v16H56V152M104 152h16v16H104V152M120 152h16v16H120V152M136 152h16v16H136V152M152 152h16v16H152V152M168 152h16v16H168V152M184 152h16v16H184V152M216 152h16v16H216V152M232 152h16v16H232V152M248 152h16v16H248V152M296 152h16v16H296V152M312 152h16v16H312V152M328 152h16v16H328V152M360 152h16v16H360V152M392 152h16v16H392V152M408 152h16v16H408V152M424 152h16v16H424V152M440 152h16v16H440V152M456 152h16v16H456V152M88 168h16v16H88V168M104 168h16v16H104V168M136 168h16v16H136V168M152 168h16v16H152V168M184 168h16v16H184V168M216 168h16v16H216V168M232 168h16v16H232V168M248 168h16v16H248V168M264 168h16v16H264V168M280 168h16v16H280V168M296 168h16v16H296V168M312 168h16v16H312V168M360 168h16v16H360V168M424 168h16v16H424V168M456 168h16v16H456V168M472 168h16v16H472V168M24 184h16v16H24V184M40 184h16v16H40V184M56 184h16v16H56V184M72 184h16v16H72V184M120 184h16v16H120V184M200 184h16v16H200V184M216 184h16v16H216V184M232 184h16v16H232V184M280 184h16v16H280V184M328 184h16v16H328V184M376 184h16v16H376V184M408 184h16v16H408V184M472 184h16v16H472V184M40 200h16v16H40V200M88 200h16v16H88V200M152 200h16v16H152V200M168 200h16v16H168V200M184 200h16v16H184V200M200 200h16v16H200V200M360 200h16v16H360V200M376 200h16v16H376V200M456 200h16v16H456V200M24 216h16v16H24V216M72 216h16v16H72V216M104 216h16v16H104V216M120 216h16v16H120V216M136 216h16v16H136V216M152 216h16v16H152V216M184 216h16v16H184V216M248 216h16v16H248V216M264 216h16v16H264V216M280 216h16v16H280V216M312 216h16v16H312V216M328 216h16v16H328V216M376 216h16v16H376V216M392 216h16v16H392V216M408 216h16v16H408V216M456 216h16v16H456V216M104 232h16v16H104V232M152 232h16v16H152V232M184 232h16v16H184V232M296 232h16v16H296V232M312 232h16v16H312V232M328 232h16v16H328V232M360 232h16v16H360V232M392 232h16v16H392V232M424 232h16v16H424V232M456 232h16v16H456V232M472 232h16v16H472V232M24 248h16v16H24V248M56 248h16v16H56V248M104 248h16v16H104V248M120 248h16v16H120V248M136 248h16v16H136V248M152 248h16v16H152V248M168 248h16v16H168V248M248 248h16v16H248V248M264 248h16v16H264V248M328 248h16v16H328V248M344 248h16v16H344V248M392 248h16v16H392V248M472 248h16v16H472V248M40 264h16v16H40V264M56 264h16v16H56V264M72 264h16v16H72V264M88 264h16v16H88V264M104 264h16v16H104V264M136 264h16v16H136V264M152 264h16v16H152V264M168 264h16v16H168V264M184 264h16v16H184V264M232 264h16v16H232V264M248 264h16v16H248V264M264 264h16v16H264V264M280 264h16v16H280V264M312 264h16v16H312V264M328 264h16v16H328V264M376 264h16v16H376V264M408 264h16v16H408V264M424 264h16v16H424V264M456 264h16v16H456V264M24 280h16v16H24V280M40 280h16v16H40V280M72 280h16v16H72V280M104 280h16v16H104V280M120 280h16v16H120V280M152 280h16v16H152V280M168 280h16v16H168V280M296 280h16v16H296V280M328 280h16v16H328V280M344 280h16v16H344V280M392 280h16v16H392V280M408 280h16v16H408V280M424 280h16v16H424V280M440 280h16v16H440V280M456 280h16v16H456V280M472 280h16v16H472V280M56 296h16v16H56V296M72 296h16v16H72V296M136 296h16v16H136V296M184 296h16v16H184V296M200 296h16v16H200V296M216 296h16v16H216V296M232 296h16v16H232V296M312 296h16v16H312V296M344 296h16v16H344V296M392 296h16v16H392V296M408 296h16v16H408V296M424 296h16v16H424V296M440 296h16v16H440V296M472 296h16v16H472V296M24 312h16v16H24V312M40 312h16v16H40V312M120 312h16v16H120V312M152 312h16v16H152V312M184 312h16v16H184V312M216 312h16v16H216V312M232 312h16v16H232V312M248 312h16v16H248V312M296 312h16v16H296V312M312 312h16v16H312V312M344 312h16v16H344V312M376 312h16v16H376V312M392 312h16v16H392V312M440 312h16v16H440V312M472 312h16v16H472V312M72 328h16v16H72V328M152 328h16v16H152V328M168 328h16v16H168V328M184 328h16v16H184V328M200 328h16v16H200V328M264 328h16v16H264V328M312 328h16v16H312V328M328 328h16v16H328V328M344 328h16v16H344V328M376 328h16v16H376V328M392 328h16v16H392V328M408 328h16v16H408V328M24 344h16v16H24V344M40 344h16v16H40V344M56 344h16v16H56V344M88 344h16v16H88V344M104 344h16v16H104V344M120 344h16v16H120V344M136 344h16v16H136V344M280 344h16v16H280V344M344 344h16v16H344V344M360 344h16v16H360V344M376 344h16v16H376V344M392 344h16v16H392V344M408 344h16v16H408V344M456 344h16v16H456V344M472 344h16v16H472V344M152 360h16v16H152V360M184 360h16v16H184V360M200 360h16v16H200V360M232 360h16v16H232V360M248 360h16v16H248V360M264 360h16v16H264V360M344 360h16v16H344V360M408 360h16v16H408V360M440 360h16v16H440V360M24 376h16v16H24V376M40 376h16v16H40V376M56 376h16v16H56V376M72 376h16v16H72V376M88 376h16v16H88V376M104 376h16v16H104V376M120 376h16v16H120V376M152 376h16v16H152V376M168 376h16v16H168V376M200 376h16v16H200V376M296 376h16v16H296V376M344 376h16v16H344V376M376 376h16v16H376V376M408 376h16v16H408V376M472 376h16v16H472V376M24 392h16v16H24V392M120 392h16v16H120V392M152 392h16v16H152V392M184 392h16v16H184V392M232 392h16v16H232V392M248 392h16v16H248V392M296 392h16v16H296V392M328 392h16v16H328V392M344 392h16v16H344V392M408 392h16v16H408V392M424 392h16v16H424V392M24 408h16v16H24V408M56 408h16v16H56V408M72 408h16v16H72V408M88 408h16v16H88V408M120 408h16v16H120V408M168 408h16v16H168V408M184 408h16v16H184V408M264 408h16v16H264V408M280 408h16v16H280V408M312 408h16v16H312V408M328 408h16v16H328V408M344 408h16v16H344V408M360 408h16v16H360V408M376 408h16v16H376V408M392 408h16v16H392V408M408 408h16v16H408V408M424 408h16v16H424V408M440 408h16v16H440V408M24 424h16v16H24V424M56 424h16v16H56V424M72 424h16v16H72V424M88 424h16v16H88V424M120 424h16v16H120V424M184 424h16v16H184V424M248 424h16v16H248V424M264 424h16v16H264V424M280 424h16v16H280V424M296 424h16v16H296V424M344 424h16v16H344V424M360 424h16v16H360V424M392 424h16v16H392V424M424 424h16v16H424V424M440 424h16v16H440V424M456 424h16v16H456V424M24 440h16v16H24V440M56 440h16v16H56V440M72 440h16v16H72V440M88 440h16v16H88V440M120 440h16v16H120V440M152 440h16v16H152V440M168 440h16v16H168V440M184 440h16v16H184V440M216 440h16v16H216V440M232 440h16v16H232V440M264 440h16v16H264V440M280 440h16v16H280V440M296 440h16v16H296V440M328 440h16v16H328V440M360 440h16v16H360V440M408 440h16v16H408V440M440 440h16v16H440V440M456 440h16v16H456V440M472 440h16v16H472V440M24 456h16v16H24V456M120 456h16v16H120V456M168 456h16v16H168V456M184 456h16v16H184V456M200 456h16v16H200V456M216 456h16v16H216V456M248 456h16v16H248V456M280 456h16v16H280V456M296 456h16v16H296V456M328 456h16v16H328V456M392 456h16v16H392V456M24 472h16v16H24V472M40 472h16v16H40V472M56 472h16v16H56V472M72 472h16v16H72V472M88 472h16v16H88V472M104 472h16v16H104V472M120 472h16v16H120V472M216 472h16v16H216V472M232 472h16v16H232V472M248 472h16v16H248V472M264 472h16v16H264V472M296 472h16v16H296V472M312 472h16v16H312V472M328 472h16v16H328V472M344 472h16v16H344V472M376 472h16v16H376V472M392 472h16v16H392V472M408 472h16v16H408V472M424 472h16v16H424V472M440 472h16v16H440V472M472 472h16v16H472V472"/>
</svg>